<?xml version="1.0" encoding="iso-8859-1"?>
<!-- Uploaded to: SVG Repo, www.svgrepo.com, Generator: SVG Repo Mixer Tools -->
<svg version="1.1" id="Layer_1" xmlns="http://www.w3.org/2000/svg" xmlns:xlink="http://www.w3.org/1999/xlink" 
	 viewBox="0 0 512 512" xml:space="preserve">
<path style="fill:#FFB555;" d="M444.659,444.921L444.659,444.921V329.629h39.828v75.464
	C484.487,427.09,466.656,444.921,444.659,444.921z"/>
<path style="fill:#CC8525;" d="M444.659,422.911L444.659,422.911v22.01l0,0c21.997,0,39.828-17.831,39.828-39.828v-22.01
	C484.487,405.079,466.656,422.911,444.659,422.911z"/>
<rect x="444.659" y="329.629" style="fill:#F9D85C;" width="39.828" height="31.443"/>
<path style="fill:#DDB92E;" d="M392.254,504.139H119.746c-28.942,0-52.405-23.463-52.405-52.405v-259.93h377.318v259.93
	C444.659,480.676,421.196,504.139,392.254,504.139z"/>
<rect x="67.341" y="191.803" style="fill:#F9D85C;" width="377.318" height="259.93"/>
<path style="fill:#FFB555;" d="M407.975,230.059H104.025c-28.942,0-52.405-23.463-52.405-52.405V72.843h408.762v104.811
	C460.381,206.596,436.918,230.059,407.975,230.059z"/>
<path style="fill:#CC8525;" d="M439.419,72.843v104.811c0,28.942-23.463,52.405-52.405,52.405h20.962
	c28.942,0,52.405-23.463,52.405-52.405V72.843H439.419z"/>
<path style="fill:#FFFFFF;" d="M72.581,177.654V72.843H51.619v104.811c0,28.942,23.463,52.405,52.405,52.405h20.962
	C96.044,230.059,72.581,206.596,72.581,177.654z"/>
<rect x="139.66" y="167.173" style="fill:#FFB555;" width="44.02" height="108.479"/>
<path style="fill:#CC8525;" d="M139.66,319.672v41.4c0,12.156,9.854,22.01,22.01,22.01s22.01-9.854,22.01-22.01v-41.4H139.66z"/>
<rect x="328.319" y="167.173" style="fill:#FFB555;" width="44.02" height="108.479"/>
<path style="fill:#CC8525;" d="M328.319,319.672v41.4c0,12.156,9.854,22.01,22.01,22.01c12.156,0,22.01-9.854,22.01-22.01v-41.4
	H328.319z"/>
<rect x="119.746" y="275.652" style="fill:#F9D85C;" width="83.849" height="44.02"/>
<rect x="119.746" y="275.652" style="fill:#FFFFFF;" width="20.962" height="44.02"/>
<rect x="182.633" y="275.652" style="fill:#DDB92E;" width="20.962" height="44.02"/>
<rect x="308.405" y="275.652" style="fill:#F9D85C;" width="83.849" height="44.02"/>
<rect x="308.405" y="275.652" style="fill:#FFFFFF;" width="20.962" height="44.02"/>
<rect x="371.292" y="275.652" style="fill:#DDB92E;" width="20.962" height="44.02"/>
<path style="fill:#FFB555;" d="M67.341,444.921L67.341,444.921V329.629H27.513v75.464C27.513,427.09,45.344,444.921,67.341,444.921z
	"/>
<path style="fill:#CC8525;" d="M27.513,384.131v20.962c0,21.997,17.831,39.828,39.828,39.828l0,0v-20.962l0,0
	C45.344,423.959,27.513,406.128,27.513,384.131z"/>
<rect x="27.513" y="329.629" style="fill:#F9D85C;" width="39.828" height="31.443"/>
<path d="M452.52,321.769V218.204c9.762-10.714,15.722-24.948,15.722-40.55V64.983H342.469v-36.16
	C342.469,12.929,329.538,0,313.646,0H198.354c-15.893,0-28.823,12.929-28.823,28.823v36.16H43.758v112.671
	c0,15.601,5.961,29.836,15.722,40.55v103.564H19.652v83.324c0,23.621,17.265,43.275,39.837,47.032
	C59.701,485.176,86.646,512,119.746,512h272.508c33.1,0,60.044-26.824,60.257-59.875c22.572-3.756,39.837-23.41,39.837-47.032
	v-83.324H452.52z M476.626,337.49v15.722H452.52V337.49H476.626z M185.253,28.823c0-7.225,5.877-13.101,13.101-13.101h115.292
	c7.225,0,13.101,5.877,13.101,13.101v36.16H185.253V28.823z M59.48,80.704h393.04v96.95c0,24.562-19.982,44.545-44.545,44.545
	h-27.775v-62.886h-59.742v62.886H191.541v-62.886h-59.742v62.886h-27.775c-24.562,0-44.545-19.982-44.545-44.545V80.704z
	 M336.18,327.533h28.299v33.539c0,7.802-6.347,14.149-14.149,14.149c-7.802,0-14.149-6.347-14.149-14.149V327.533z M316.266,311.812
	v-28.299h68.127v28.299H316.266z M336.18,267.791v-92.757h28.299v92.757H336.18z M147.521,327.533h28.299v33.539
	c0,7.802-6.347,14.149-14.149,14.149c-7.802,0-14.149-6.347-14.149-14.149V327.533z M127.607,311.812v-28.299h68.127v28.299H127.607
	z M147.521,267.791v-92.757h28.299v92.757H147.521z M59.48,337.49v15.722H35.374V337.49H59.48z M35.374,405.093v-36.16H59.48v67.146
	C45.642,432.567,35.374,420.008,35.374,405.093z M392.254,496.278H119.746c-24.562,0-44.545-19.982-44.545-44.544V230.567
	c8.567,4.685,18.389,7.354,28.823,7.354h27.775v29.871h-19.914v59.742h19.914v33.539c0,16.471,13.4,29.871,29.871,29.871
	s29.871-13.4,29.871-29.871v-33.539h19.914v-59.742h-19.914V237.92h56.598v205.953H98.784v15.722h282.989v-15.722H263.861V237.92
	h56.598v29.871h-19.914v59.742h19.914v33.539c0,16.471,13.4,29.871,29.871,29.871c16.471,0,29.871-13.4,29.871-29.871v-33.539
	h19.914v-59.742h-19.914V237.92h27.775c10.434,0,20.256-2.668,28.823-7.354v221.167
	C436.798,476.296,416.816,496.278,392.254,496.278z M452.52,436.079v-67.146h24.106v36.16
	C476.626,420.008,466.358,432.567,452.52,436.079z"/>
<rect x="397.494" y="443.873" width="15.722" height="15.722"/>
</svg>